<svg xmlns="http://www.w3.org/2000/svg" fill="none" viewBox="0 0 1024 1024" height="1024" width="1024">
<rect fill="white" height="1024" width="1024"></rect>
<path fill="#313841" d="M501.254 75.7992C512.412 66.6642 527.444 75.2788 530.219 88.114C538.198 113.206 557.913 131.476 580.577 143.559C605.843 157.84 629.316 175.185 648.916 196.75C670.134 191.489 692.162 187.037 714.074 190.911C744.543 194.437 774.954 210.221 805.828 200.566C815.715 199.468 827.567 191.778 835.834 200.624C849.19 211.32 836.297 226.872 832.192 239.014C819.415 263.585 830.284 290.874 836.702 315.562C843.813 339.787 844.507 365.283 842.252 390.318C864.511 413.213 877.925 442.583 897.64 467.387C909.955 483.864 933.833 485.367 945.8 501.729C953.259 520.057 932.503 528.209 920.361 535.841C896.194 548.965 888.042 576.774 875.612 599.323C867.633 615.395 855.376 628.52 844.969 642.916C843.582 663.209 845.837 684.081 840.228 704.027C832.944 735.074 817.391 768.492 833.464 799.597C840.691 811.103 841.732 830.644 823.924 831.974C803.169 824.863 782.123 813.415 759.517 819.891C722.11 828.563 684.01 841.456 645.389 831.685C618.909 863.195 579.016 876.955 547.911 902.394C529.641 914.593 535.538 948.705 511.371 952C487.493 948.762 491.483 915.981 474.427 903.145C444.883 877.533 406.956 862.848 380.534 833.188C340.409 844.867 300.632 830.587 262.069 820.642C238.017 813.704 216.279 828.216 193.615 833.13C185.752 830.587 178.062 823.302 179.855 814.34C184.249 799.828 193.904 787.34 196.91 772.424C196.621 752.766 187.371 734.728 182.977 715.88C175.576 691.886 175.287 666.562 178.351 641.875C149.79 614.702 136.204 577.179 115.274 544.744C106.024 528.672 81.6831 526.301 77 507.569C77.2891 491.438 94.9229 489.241 106.024 483.113C124.12 475.076 133.371 456.344 143.315 440.444C153.548 422.232 165.863 405.235 179.97 389.855C173.379 351.928 186.041 315.389 195.234 279.254C201.536 257.226 192.054 235.949 184.364 215.829C177.542 204.035 192.863 189.523 204.6 195.594C223.217 201.664 242.816 207.677 262.474 202.243C300.921 193.57 341.219 186.054 379.84 198.774C404.238 167.553 440.431 150.382 471.421 127.024C489.343 115.287 490.211 92.1611 501.254 75.7992ZM414.761 208.371C436.211 224.155 459.279 238.898 475.294 260.752C494.142 284.399 503.74 313.538 512.123 342.215C520.448 313.885 529.757 284.977 548.836 261.909C566.296 238.84 591.851 224.502 616.018 209.643C583.699 180.041 538.545 166.339 513.221 128.99C488.014 164.258 446.617 180.562 414.761 208.371ZM226.512 236.065C237.035 282.202 212.578 324.928 207.78 369.909C272.649 344.296 344.977 370.14 395.855 413.097C376.776 386.675 360.009 357.826 353.129 325.622C344.688 292.32 350.932 257.746 362.784 226.121C316.589 220.686 272.649 248.091 226.512 236.065ZM666.492 225.427C691.584 288.099 670.712 358.577 630.819 410.033C681.119 369.678 751.308 344.412 813.922 370.776C810.395 325.795 784.205 282.896 796.751 237.048C752.58 240.228 710.952 215.772 666.492 225.427ZM384.465 316.776C396.491 368.521 436.095 406.969 471.305 444.202C477.144 438.999 488.476 436.686 486.915 426.742C486.279 384.363 482.174 340.191 462.575 301.802C448.583 273.703 423.954 251.733 394.41 241.153C383.945 264.742 377.643 291.221 384.465 316.776ZM567.568 292.089C541.147 333.6 539.296 384.363 535.538 432.003C541.436 435.761 547.333 439.635 553.172 443.624C587.688 410.9 621.106 374.187 637.584 328.802C648.28 300.414 644.29 269.193 633.594 241.5C607.057 251.039 582.774 267.921 567.568 292.089ZM220.095 403.674C227.726 436.166 251.604 463.339 282.304 476.059C329.829 496.063 382.557 496.005 433.262 494.791C431.065 485.945 427.769 477.215 419.849 472.012C384.754 443.855 349.024 414.138 305.662 399.8C277.853 389.798 246.979 391.59 220.095 403.674ZM586.416 486.061C593.181 490.802 600.177 496.41 609.08 495.37C657.241 495.485 708.061 493.635 751.597 470.624C773.682 456.98 796.231 436.802 799.989 409.744C786.922 389.451 758.072 392.977 737.316 395.059C677.939 406.333 631.513 448.77 586.416 486.061ZM126.49 509.592C153.548 535.32 168.002 570.241 186.735 601.867C207.491 557.348 249.812 526.879 297.163 516.415C251.489 502.886 210.555 472.706 190.377 428.708C170.835 456.98 155.109 489.01 126.49 509.592ZM832.423 432.119C809.239 471.549 773.162 503.348 728.644 515.952C774.954 527.053 813.749 559.314 834.678 601.924C855.781 571.282 864.627 531.447 897.466 510.055C868.038 491.207 852.254 459.582 832.423 432.119ZM490.326 464.322C451.011 478.603 446.155 539.078 482.637 559.487C512.412 581.457 559.359 561.28 564.215 524.798C574.738 484.558 528.08 444.318 490.326 464.322ZM277.506 556.712C247.499 568.16 227.726 594.929 215.122 623.316C235.878 635.92 259.988 644.303 284.444 638.926C346.075 627.652 394.178 582.961 437.945 541.218C384.465 533.933 328.153 537.055 277.506 556.712ZM594.453 539.83L588.267 540.871C599.656 561.511 621.453 572.958 638.798 587.991C677.823 618.806 725.29 650.258 777.556 640.488C787.732 637.77 808.083 632.625 801.145 618.055C788.599 580.359 753.1 554.053 714.884 546.421C675.453 538.384 634.519 535.205 594.453 539.83ZM382.326 722.297C377.18 745.655 384.812 768.897 394.93 789.826C419.964 780.634 442.281 764.214 456.504 741.376C484.487 697.957 485.932 644.246 487.436 594.235C481.827 591.98 476.277 589.783 470.669 587.644C433.84 626.438 391.519 667.141 382.326 722.297ZM536.059 594.177C537.562 637.019 540.164 681.306 557.855 721.025C571.847 752.361 598.327 778.841 632.322 787.167C644.811 761.496 648.337 731.432 638.74 704.259C622.725 658.7 588.093 623.547 556.526 588.337C549.703 590.245 542.881 592.211 536.059 594.177ZM206.45 660.55C209.456 704.374 232.525 744.903 226.165 789.711C273.054 775.488 315.433 812.027 362.495 805.552C334.801 747.042 351.684 678.357 387.934 627.653C338.039 668.239 267.272 688.822 206.45 660.55ZM634.808 626.38C650.997 650.49 666.318 675.871 673.43 704.317C683.085 737.503 677.072 772.713 663.832 803.991C708.061 805.032 748.59 779.651 793.282 786.415C786.864 744.325 810.511 706.571 813.575 665.406C752.348 691.019 683.258 667.025 634.808 626.38ZM474.889 771.036C458.759 792.544 435.343 806.477 413.315 820.989C445.403 846.313 486.395 860.824 510.273 895.803C535.134 859.495 580.115 848.336 611.971 820.18C588.44 804.916 564.215 789.364 547.333 766.469C529.872 744.672 521.2 717.73 512.007 691.828C502.583 719.406 493.564 748.025 474.889 771.036Z"></path>
<path fill="#FBDC9C" d="M414.762 208.371C446.618 180.562 488.015 164.258 513.222 128.99C538.546 166.339 583.7 180.041 616.019 209.643C591.852 224.502 566.297 238.84 548.837 261.909C529.758 284.977 520.449 313.885 512.124 342.215C503.74 313.538 494.143 284.399 475.295 260.752C459.28 238.898 436.211 224.155 414.762 208.371Z"></path>
<path fill="#FBDC9C" d="M666.492 225.427C710.953 215.772 752.58 240.228 796.752 237.048C784.206 282.896 810.396 325.796 813.923 370.776C751.308 344.412 681.12 369.678 630.82 410.033C670.713 358.577 691.584 288.099 666.492 225.427Z"></path>
<path fill="#FBDC9C" d="M634.809 626.38C683.259 667.025 752.349 691.019 813.576 665.406C810.512 706.571 786.865 744.325 793.283 786.415C748.591 779.65 708.062 805.032 663.833 803.991C677.073 772.713 683.085 737.503 673.43 704.316C666.319 675.871 650.998 650.49 634.809 626.38Z"></path>
<path fill="#FBDC9D" d="M226.513 236.065C272.65 248.091 316.59 220.686 362.785 226.121C350.933 257.746 344.688 292.32 353.13 325.622C360.01 357.826 376.776 386.675 395.856 413.097C344.978 370.14 272.65 344.296 207.78 369.909C212.579 324.928 237.035 282.202 226.513 236.065Z"></path>
<path fill="#FBDC9D" d="M206.451 660.55C267.273 688.822 338.04 668.239 387.935 627.653C351.684 678.357 334.802 747.042 362.496 805.552C315.434 812.027 273.055 775.488 226.166 789.71C232.526 744.903 209.457 704.374 206.451 660.55Z"></path>
<path fill="#E67B48" d="M384.465 316.775C377.643 291.221 383.945 264.741 394.409 241.152C423.953 251.732 448.583 273.702 462.574 301.801C482.174 340.191 486.279 384.362 486.915 426.741C488.476 436.686 477.144 438.998 471.304 444.202C436.095 406.968 396.491 368.521 384.465 316.775Z"></path>
<path fill="#E77C47" d="M567.568 292.088C582.774 267.921 607.056 251.039 633.594 241.499C644.29 269.193 648.279 300.414 637.583 328.801C621.106 374.187 587.688 410.9 553.172 443.624C547.333 439.635 541.435 435.761 535.538 432.003C539.296 384.362 541.146 333.6 567.568 292.088Z"></path>
<path fill="#E77C47" d="M586.417 486.061C631.513 448.77 677.939 406.333 737.316 395.058C758.072 392.977 786.922 389.45 799.989 409.744C796.231 436.802 773.682 456.979 751.597 470.624C708.061 493.635 657.241 495.485 609.08 495.369C600.177 496.41 593.181 490.802 586.417 486.061Z"></path>
<path fill="#E67C48" d="M220.095 403.673C246.979 391.589 277.853 389.797 305.662 399.799C349.024 414.137 384.755 443.855 419.849 472.011C427.77 477.214 431.065 485.945 433.262 494.791C382.558 496.005 329.829 496.063 282.305 476.058C251.604 463.339 227.726 436.165 220.095 403.673Z"></path>
<path fill="#6CAE84" d="M126.489 509.592C155.108 489.009 170.834 456.979 190.376 428.707C210.554 472.705 251.487 502.885 297.162 516.414C249.811 526.879 207.489 557.348 186.733 601.866C168.001 570.241 153.547 535.32 126.489 509.592Z"></path>
<path fill="#6DAE85" d="M832.422 432.118C852.253 459.581 868.037 491.206 897.465 510.054C864.626 531.446 855.78 571.281 834.677 601.924C813.748 559.313 774.953 527.052 728.643 515.951C773.161 503.347 809.238 471.549 832.422 432.118Z"></path>
<path fill="#EAAF59" d="M490.326 464.322C528.08 444.317 574.737 484.557 564.215 524.797C559.358 561.279 512.412 581.456 482.636 559.486C446.155 539.077 451.011 478.602 490.326 464.322ZM500.733 480.105C476.681 487.101 467.893 520.923 486.279 538.268C502.93 558.33 538.66 549.311 545.425 524.624C555.774 498.895 526.403 469.93 500.733 480.105Z"></path>
<path fill="#2C3943" d="M500.733 480.105C526.403 469.93 555.774 498.895 545.425 524.624C538.66 549.311 502.93 558.33 486.279 538.268C467.894 520.923 476.682 487.101 500.733 480.105ZM508.365 499.3C493.795 499.647 491.251 522.022 504.375 526.763C512.123 531.388 525.536 528.613 526.577 518.322C531.318 507.394 519.639 494.791 508.365 499.3Z"></path>
<path fill="#829F81" d="M508.365 499.3C519.639 494.791 531.318 507.394 526.577 518.322C525.536 528.613 512.123 531.388 504.376 526.763C491.251 522.022 493.795 499.647 508.365 499.3Z"></path>
<path fill="#6CAD84" d="M277.506 556.712C328.153 537.054 384.466 533.932 437.946 541.217C394.179 582.96 346.076 627.652 284.444 638.926C259.988 644.303 235.879 635.92 215.123 623.316C227.727 594.928 247.5 568.159 277.506 556.712Z"></path>
<path fill="#6CAD85" d="M594.451 539.83C634.517 535.205 675.451 538.384 714.882 546.421C753.098 554.052 788.597 580.359 801.143 618.055C808.081 632.624 787.73 637.77 777.554 640.487C725.289 650.258 677.822 618.806 638.796 587.99C621.451 572.958 599.654 561.511 588.265 540.871L594.451 539.83Z"></path>
<path fill="#E77C48" d="M382.326 722.297C391.519 667.14 433.84 626.438 470.669 587.643C476.277 589.782 481.828 591.98 487.436 594.234C485.932 644.245 484.487 697.956 456.504 741.376C442.281 764.213 419.964 780.633 394.93 789.826C384.812 768.896 377.181 745.654 382.326 722.297Z"></path>
<path fill="#E77B48" d="M536.057 594.176C542.879 592.21 549.701 590.245 556.523 588.337C588.091 623.547 622.723 658.699 638.738 704.258C648.335 731.431 644.808 761.496 632.32 787.166C598.324 778.84 571.845 752.361 557.853 721.024C540.162 681.305 537.56 637.018 536.057 594.176Z"></path>
<path fill="#6CAE85" d="M474.887 771.035C493.562 748.025 502.581 719.406 512.005 691.827C521.198 717.729 529.87 744.671 547.331 766.468C564.213 789.363 588.438 804.915 611.969 820.179C580.113 848.335 535.132 859.494 510.271 895.802C486.393 860.824 445.401 846.312 413.313 820.988C435.341 806.477 458.757 792.543 474.887 771.035Z"></path>
</svg>
